<?xml version="1.0" standalone="no"?>
<!DOCTYPE svg PUBLIC "-//W3C//DTD SVG 20010904//EN"
 "http://www.w3.org/TR/2001/REC-SVG-20010904/DTD/svg10.dtd">
<svg version="1.0" xmlns="http://www.w3.org/2000/svg"
 width="943.000000pt" height="795.000000pt" viewBox="0 0 943.000000 795.000000"
 preserveAspectRatio="xMidYMid meet">
<metadata>
Created by potrace 1.15, written by Peter Selinger 2001-2017
</metadata>
<g transform="translate(0.000000,795.000000) scale(0.100000,-0.100000)"
fill="#000000" stroke="none">
<path d="M4412 7438 l-303 -510 571 -1076 c314 -591 567 -1078 563 -1082 -4
-4 -113 -82 -240 -174 l-233 -167 0 -655 c0 -360 2 -654 5 -654 3 0 222 162
487 360 383 285 485 357 493 346 6 -8 210 -393 455 -855 l445 -840 618 -1 618
0 -15 28 c-8 15 -296 544 -640 1177 -577 1059 -625 1151 -609 1163 247 180
2802 2089 2803 2093 0 4 -376 4 -836 1 l-837 -5 -821 -593 c-451 -327 -823
-590 -827 -586 -4 4 -314 572 -689 1262 -376 690 -688 1260 -694 1267 -8 8
-89 -120 -314 -499z"/>
<path d="M3978 6738 c-35 -62 -212 -377 -393 -700 l-329 -587 -46 33 c-377
275 -1469 1062 -1497 1080 l-38 24 -838 5 c-687 4 -836 2 -825 -9 7 -7 616
-461 1353 -1009 737 -548 1350 -1004 1362 -1013 21 -17 20 -19 -968 -1777
l-988 -1760 631 -3 c348 -1 635 1 639 5 4 5 354 652 779 1438 424 787 775
1433 778 1437 4 3 248 -173 542 -393 294 -219 536 -399 537 -399 2 0 3 296 3
658 l0 658 -288 208 -289 208 254 469 c139 258 253 473 253 477 0 10 -548
1043 -560 1055 -4 5 -36 -42 -72 -105z"/>
<path d="M4637 5628 c-86 -157 -409 -779 -406 -783 2 -2 111 -74 242 -159
l238 -156 205 157 c141 109 203 163 201 175 -3 23 -430 828 -439 828 -3 0 -22
-28 -41 -62z"/>
<path d="M4001 3553 c0 -5 69 -352 153 -773 l152 -765 -823 -5 -823 -5 -265
-483 c-146 -265 -265 -487 -265 -492 0 -6 438 -11 1187 -12 l1187 -3 101 -504
c61 -309 105 -506 113 -509 7 -2 12 -1 12 1 0 6 179 879 200 975 l12 52 1760
0 c1114 0 1758 4 1756 10 -1 5 -120 223 -263 484 l-260 475 -575 2 c-316 1
-944 5 -1396 8 l-820 6 158 765 c86 421 157 768 158 773 1 22 -55 -16 -375
-253 -192 -143 -353 -260 -357 -260 -5 0 -166 117 -358 260 -193 143 -354 260
-360 260 -5 0 -10 -3 -9 -7z"/>
</g>
</svg>
